<mxfile host="Electron" modified="2023-11-29T17:40:04.111Z" agent="Mozilla/5.0 (Windows NT 10.0; Win64; x64) AppleWebKit/537.36 (KHTML, like Gecko) draw.io/21.2.1 Chrome/112.0.5615.87 Electron/24.1.2 Safari/537.36" etag="rT9RjM6ZLzJeg8NLkEZH" version="21.2.1" type="device">
  <diagram name="Page-1" id="dmJaMq3kT7Hk9kacO25Q">
    <mxGraphModel dx="1826" dy="880" grid="1" gridSize="10" guides="1" tooltips="1" connect="1" arrows="1" fold="1" page="1" pageScale="1" pageWidth="850" pageHeight="1100" math="0" shadow="0">
      <root>
        <mxCell id="0" />
        <mxCell id="1" parent="0" />
        <mxCell id="rBp_qy43rg6pvI1Dn4-a-3" style="edgeStyle=orthogonalEdgeStyle;rounded=0;orthogonalLoop=1;jettySize=auto;html=1;exitX=1;exitY=0.5;exitDx=0;exitDy=0;entryX=0;entryY=0.5;entryDx=0;entryDy=0;" edge="1" parent="1" source="KgUe9YysScvb5YI7xlJu-5" target="rBp_qy43rg6pvI1Dn4-a-5">
          <mxGeometry relative="1" as="geometry">
            <mxPoint x="570" y="1095" as="targetPoint" />
          </mxGeometry>
        </mxCell>
        <mxCell id="rBp_qy43rg6pvI1Dn4-a-11" value="Yes" style="edgeLabel;html=1;align=center;verticalAlign=middle;resizable=0;points=[];" vertex="1" connectable="0" parent="rBp_qy43rg6pvI1Dn4-a-3">
          <mxGeometry x="-0.1822" y="-1" relative="1" as="geometry">
            <mxPoint as="offset" />
          </mxGeometry>
        </mxCell>
        <mxCell id="rBp_qy43rg6pvI1Dn4-a-22" style="edgeStyle=orthogonalEdgeStyle;rounded=0;orthogonalLoop=1;jettySize=auto;html=1;exitX=0.5;exitY=0;exitDx=0;exitDy=0;entryX=0.5;entryY=1;entryDx=0;entryDy=0;" edge="1" parent="1" source="KgUe9YysScvb5YI7xlJu-5" target="KgUe9YysScvb5YI7xlJu-65">
          <mxGeometry relative="1" as="geometry" />
        </mxCell>
        <mxCell id="rBp_qy43rg6pvI1Dn4-a-23" value="No" style="edgeLabel;html=1;align=center;verticalAlign=middle;resizable=0;points=[];" vertex="1" connectable="0" parent="rBp_qy43rg6pvI1Dn4-a-22">
          <mxGeometry x="-0.0783" y="-1" relative="1" as="geometry">
            <mxPoint x="-1" y="33" as="offset" />
          </mxGeometry>
        </mxCell>
        <mxCell id="KgUe9YysScvb5YI7xlJu-5" value="Have &lt;br&gt;Shipping #?" style="rhombus;whiteSpace=wrap;html=1;" parent="1" vertex="1">
          <mxGeometry x="365" y="1070" width="90" height="50" as="geometry" />
        </mxCell>
        <mxCell id="KgUe9YysScvb5YI7xlJu-10" value="" style="ellipse;html=1;shape=startState;fillColor=#000000;strokeColor=#ff0000;" parent="1" vertex="1">
          <mxGeometry x="245" y="50" width="30" height="30" as="geometry" />
        </mxCell>
        <mxCell id="KgUe9YysScvb5YI7xlJu-11" value="" style="edgeStyle=orthogonalEdgeStyle;html=1;verticalAlign=bottom;endArrow=open;endSize=8;strokeColor=#ff0000;rounded=0;entryX=0.5;entryY=0;entryDx=0;entryDy=0;" parent="1" source="KgUe9YysScvb5YI7xlJu-10" target="KgUe9YysScvb5YI7xlJu-24" edge="1">
          <mxGeometry relative="1" as="geometry">
            <mxPoint x="260.0000000000001" y="140" as="targetPoint" />
          </mxGeometry>
        </mxCell>
        <mxCell id="KgUe9YysScvb5YI7xlJu-12" value="Staff" style="text;html=1;align=center;verticalAlign=middle;resizable=0;points=[];autosize=1;strokeColor=none;fillColor=none;" parent="1" vertex="1">
          <mxGeometry x="235" y="30" width="50" height="30" as="geometry" />
        </mxCell>
        <mxCell id="KgUe9YysScvb5YI7xlJu-35" style="edgeStyle=orthogonalEdgeStyle;rounded=0;orthogonalLoop=1;jettySize=auto;html=1;exitX=0.5;exitY=1;exitDx=0;exitDy=0;entryX=0.5;entryY=0;entryDx=0;entryDy=0;" parent="1" source="KgUe9YysScvb5YI7xlJu-24" target="KgUe9YysScvb5YI7xlJu-34" edge="1">
          <mxGeometry relative="1" as="geometry" />
        </mxCell>
        <mxCell id="KgUe9YysScvb5YI7xlJu-24" value="Log In" style="rounded=1;whiteSpace=wrap;html=1;" parent="1" vertex="1">
          <mxGeometry x="200" y="150" width="120" height="60" as="geometry" />
        </mxCell>
        <mxCell id="KgUe9YysScvb5YI7xlJu-58" style="edgeStyle=orthogonalEdgeStyle;rounded=0;orthogonalLoop=1;jettySize=auto;html=1;exitX=0.5;exitY=1;exitDx=0;exitDy=0;entryX=0.5;entryY=0;entryDx=0;entryDy=0;" parent="1" source="KgUe9YysScvb5YI7xlJu-26" target="KgUe9YysScvb5YI7xlJu-32" edge="1">
          <mxGeometry relative="1" as="geometry" />
        </mxCell>
        <mxCell id="KgUe9YysScvb5YI7xlJu-26" value="Display Menu" style="rounded=1;whiteSpace=wrap;html=1;" parent="1" vertex="1">
          <mxGeometry x="200" y="420" width="120" height="60" as="geometry" />
        </mxCell>
        <mxCell id="KgUe9YysScvb5YI7xlJu-55" style="edgeStyle=orthogonalEdgeStyle;rounded=0;orthogonalLoop=1;jettySize=auto;html=1;exitX=1;exitY=0.5;exitDx=0;exitDy=0;entryX=1.049;entryY=0.338;entryDx=0;entryDy=0;entryPerimeter=0;" parent="1" source="KgUe9YysScvb5YI7xlJu-27" target="KgUe9YysScvb5YI7xlJu-52" edge="1">
          <mxGeometry relative="1" as="geometry" />
        </mxCell>
        <mxCell id="KgUe9YysScvb5YI7xlJu-27" value="Display Error" style="rounded=1;whiteSpace=wrap;html=1;" parent="1" vertex="1">
          <mxGeometry x="350" y="335" width="120" height="60" as="geometry" />
        </mxCell>
        <mxCell id="KgUe9YysScvb5YI7xlJu-38" style="edgeStyle=orthogonalEdgeStyle;rounded=0;orthogonalLoop=1;jettySize=auto;html=1;exitX=0.5;exitY=0;exitDx=0;exitDy=0;entryX=0.85;entryY=0.594;entryDx=0;entryDy=0;entryPerimeter=0;" parent="1" source="KgUe9YysScvb5YI7xlJu-29" target="KgUe9YysScvb5YI7xlJu-52" edge="1">
          <mxGeometry relative="1" as="geometry" />
        </mxCell>
        <mxCell id="KgUe9YysScvb5YI7xlJu-29" value="Create Account&lt;br&gt;(Username, Pwrd)" style="rounded=1;whiteSpace=wrap;html=1;" parent="1" vertex="1">
          <mxGeometry x="350" y="245" width="120" height="60" as="geometry" />
        </mxCell>
        <mxCell id="KgUe9YysScvb5YI7xlJu-127" style="edgeStyle=orthogonalEdgeStyle;rounded=0;orthogonalLoop=1;jettySize=auto;html=1;exitX=1;exitY=0.5;exitDx=0;exitDy=0;entryX=0;entryY=0.5;entryDx=0;entryDy=0;" parent="1" source="KgUe9YysScvb5YI7xlJu-30" target="KgUe9YysScvb5YI7xlJu-5" edge="1">
          <mxGeometry relative="1" as="geometry" />
        </mxCell>
        <mxCell id="rBp_qy43rg6pvI1Dn4-a-2" value="Yes" style="edgeLabel;html=1;align=center;verticalAlign=middle;resizable=0;points=[];" vertex="1" connectable="0" parent="KgUe9YysScvb5YI7xlJu-127">
          <mxGeometry x="-0.1728" relative="1" as="geometry">
            <mxPoint as="offset" />
          </mxGeometry>
        </mxCell>
        <mxCell id="KgUe9YysScvb5YI7xlJu-147" style="edgeStyle=orthogonalEdgeStyle;rounded=0;orthogonalLoop=1;jettySize=auto;html=1;exitX=0.5;exitY=1;exitDx=0;exitDy=0;entryX=0.5;entryY=0;entryDx=0;entryDy=0;" parent="1" source="KgUe9YysScvb5YI7xlJu-30" target="KgUe9YysScvb5YI7xlJu-132" edge="1">
          <mxGeometry relative="1" as="geometry">
            <mxPoint x="259.6666666666665" y="1280" as="targetPoint" />
          </mxGeometry>
        </mxCell>
        <mxCell id="KgUe9YysScvb5YI7xlJu-162" value="No" style="edgeLabel;html=1;align=center;verticalAlign=middle;resizable=0;points=[];" parent="KgUe9YysScvb5YI7xlJu-147" vertex="1" connectable="0">
          <mxGeometry x="-0.8105" relative="1" as="geometry">
            <mxPoint as="offset" />
          </mxGeometry>
        </mxCell>
        <mxCell id="KgUe9YysScvb5YI7xlJu-30" value="Search For Package?" style="rhombus;whiteSpace=wrap;html=1;" parent="1" vertex="1">
          <mxGeometry x="215" y="1070" width="90" height="50" as="geometry" />
        </mxCell>
        <mxCell id="KgUe9YysScvb5YI7xlJu-60" style="edgeStyle=orthogonalEdgeStyle;rounded=0;orthogonalLoop=1;jettySize=auto;html=1;exitX=1;exitY=0.5;exitDx=0;exitDy=0;entryX=0;entryY=0.5;entryDx=0;entryDy=0;" parent="1" source="KgUe9YysScvb5YI7xlJu-32" target="KgUe9YysScvb5YI7xlJu-67" edge="1">
          <mxGeometry relative="1" as="geometry">
            <mxPoint x="365" y="535" as="targetPoint" />
          </mxGeometry>
        </mxCell>
        <mxCell id="KgUe9YysScvb5YI7xlJu-61" value="Yes" style="edgeLabel;html=1;align=center;verticalAlign=middle;resizable=0;points=[];" parent="KgUe9YysScvb5YI7xlJu-60" vertex="1" connectable="0">
          <mxGeometry x="-0.2767" relative="1" as="geometry">
            <mxPoint as="offset" />
          </mxGeometry>
        </mxCell>
        <mxCell id="KgUe9YysScvb5YI7xlJu-86" style="edgeStyle=orthogonalEdgeStyle;rounded=0;orthogonalLoop=1;jettySize=auto;html=1;exitX=0.5;exitY=1;exitDx=0;exitDy=0;entryX=0.5;entryY=0;entryDx=0;entryDy=0;jumpStyle=arc;jumpSize=10;" parent="1" source="KgUe9YysScvb5YI7xlJu-32" target="KgUe9YysScvb5YI7xlJu-70" edge="1">
          <mxGeometry relative="1" as="geometry" />
        </mxCell>
        <mxCell id="KgUe9YysScvb5YI7xlJu-100" value="No" style="edgeLabel;html=1;align=center;verticalAlign=middle;resizable=0;points=[];" parent="KgUe9YysScvb5YI7xlJu-86" vertex="1" connectable="0">
          <mxGeometry x="-0.8084" y="1" relative="1" as="geometry">
            <mxPoint as="offset" />
          </mxGeometry>
        </mxCell>
        <mxCell id="KgUe9YysScvb5YI7xlJu-32" value="New Package&lt;br&gt;Arrived?" style="rhombus;whiteSpace=wrap;html=1;" parent="1" vertex="1">
          <mxGeometry x="215" y="510" width="90" height="50" as="geometry" />
        </mxCell>
        <mxCell id="KgUe9YysScvb5YI7xlJu-53" style="edgeStyle=orthogonalEdgeStyle;rounded=0;orthogonalLoop=1;jettySize=auto;html=1;exitX=1;exitY=0.5;exitDx=0;exitDy=0;entryX=0;entryY=0.5;entryDx=0;entryDy=0;" parent="1" source="KgUe9YysScvb5YI7xlJu-33" target="KgUe9YysScvb5YI7xlJu-27" edge="1">
          <mxGeometry relative="1" as="geometry" />
        </mxCell>
        <mxCell id="KgUe9YysScvb5YI7xlJu-54" value="No" style="edgeLabel;html=1;align=center;verticalAlign=middle;resizable=0;points=[];" parent="KgUe9YysScvb5YI7xlJu-53" vertex="1" connectable="0">
          <mxGeometry x="-0.1512" relative="1" as="geometry">
            <mxPoint as="offset" />
          </mxGeometry>
        </mxCell>
        <mxCell id="KgUe9YysScvb5YI7xlJu-57" style="edgeStyle=orthogonalEdgeStyle;rounded=0;orthogonalLoop=1;jettySize=auto;html=1;exitX=0.5;exitY=1;exitDx=0;exitDy=0;entryX=0.5;entryY=0;entryDx=0;entryDy=0;" parent="1" source="KgUe9YysScvb5YI7xlJu-33" target="KgUe9YysScvb5YI7xlJu-26" edge="1">
          <mxGeometry relative="1" as="geometry" />
        </mxCell>
        <mxCell id="KgUe9YysScvb5YI7xlJu-59" value="Yes" style="edgeLabel;html=1;align=center;verticalAlign=middle;resizable=0;points=[];" parent="KgUe9YysScvb5YI7xlJu-57" vertex="1" connectable="0">
          <mxGeometry x="-0.2077" relative="1" as="geometry">
            <mxPoint as="offset" />
          </mxGeometry>
        </mxCell>
        <mxCell id="KgUe9YysScvb5YI7xlJu-33" value="Correct&lt;br&gt;Info?" style="rhombus;whiteSpace=wrap;html=1;" parent="1" vertex="1">
          <mxGeometry x="215" y="340" width="90" height="50" as="geometry" />
        </mxCell>
        <mxCell id="KgUe9YysScvb5YI7xlJu-36" style="edgeStyle=orthogonalEdgeStyle;rounded=0;orthogonalLoop=1;jettySize=auto;html=1;exitX=1;exitY=0.5;exitDx=0;exitDy=0;entryX=0;entryY=0.5;entryDx=0;entryDy=0;" parent="1" source="KgUe9YysScvb5YI7xlJu-34" target="KgUe9YysScvb5YI7xlJu-29" edge="1">
          <mxGeometry relative="1" as="geometry" />
        </mxCell>
        <mxCell id="KgUe9YysScvb5YI7xlJu-37" value="No" style="edgeLabel;html=1;align=center;verticalAlign=middle;resizable=0;points=[];" parent="KgUe9YysScvb5YI7xlJu-36" vertex="1" connectable="0">
          <mxGeometry x="-0.2072" relative="1" as="geometry">
            <mxPoint as="offset" />
          </mxGeometry>
        </mxCell>
        <mxCell id="KgUe9YysScvb5YI7xlJu-39" style="edgeStyle=orthogonalEdgeStyle;rounded=0;orthogonalLoop=1;jettySize=auto;html=1;exitX=0.5;exitY=1;exitDx=0;exitDy=0;entryX=0.5;entryY=0;entryDx=0;entryDy=0;" parent="1" source="KgUe9YysScvb5YI7xlJu-34" target="KgUe9YysScvb5YI7xlJu-33" edge="1">
          <mxGeometry relative="1" as="geometry">
            <mxPoint x="260" y="340" as="targetPoint" />
          </mxGeometry>
        </mxCell>
        <mxCell id="KgUe9YysScvb5YI7xlJu-40" value="Yes" style="edgeLabel;html=1;align=center;verticalAlign=middle;resizable=0;points=[];" parent="KgUe9YysScvb5YI7xlJu-39" vertex="1" connectable="0">
          <mxGeometry x="-0.1648" relative="1" as="geometry">
            <mxPoint as="offset" />
          </mxGeometry>
        </mxCell>
        <mxCell id="KgUe9YysScvb5YI7xlJu-34" value="Account &lt;br&gt;Exist?" style="rhombus;whiteSpace=wrap;html=1;" parent="1" vertex="1">
          <mxGeometry x="215" y="250" width="90" height="50" as="geometry" />
        </mxCell>
        <mxCell id="KgUe9YysScvb5YI7xlJu-143" style="edgeStyle=orthogonalEdgeStyle;rounded=0;orthogonalLoop=1;jettySize=auto;html=1;entryX=1.456;entryY=0.233;entryDx=0;entryDy=0;entryPerimeter=0;jumpStyle=arc;jumpSize=10;" parent="1" source="KgUe9YysScvb5YI7xlJu-43" target="KgUe9YysScvb5YI7xlJu-51" edge="1">
          <mxGeometry relative="1" as="geometry" />
        </mxCell>
        <mxCell id="KgUe9YysScvb5YI7xlJu-43" value="" style="html=1;points=[];perimeter=orthogonalPerimeter;fillColor=strokeColor;" parent="1" vertex="1">
          <mxGeometry x="460" y="830" width="5" height="40" as="geometry" />
        </mxCell>
        <mxCell id="KgUe9YysScvb5YI7xlJu-146" style="edgeStyle=orthogonalEdgeStyle;rounded=0;orthogonalLoop=1;jettySize=auto;html=1;entryX=0;entryY=0.5;entryDx=0;entryDy=0;exitX=-0.056;exitY=0.288;exitDx=0;exitDy=0;exitPerimeter=0;" parent="1" source="KgUe9YysScvb5YI7xlJu-51" target="KgUe9YysScvb5YI7xlJu-26" edge="1">
          <mxGeometry relative="1" as="geometry" />
        </mxCell>
        <mxCell id="KgUe9YysScvb5YI7xlJu-51" value="" style="html=1;points=[];perimeter=orthogonalPerimeter;fillColor=strokeColor;rotation=90;" parent="1" vertex="1">
          <mxGeometry x="130" y="470" width="5" height="80" as="geometry" />
        </mxCell>
        <mxCell id="KgUe9YysScvb5YI7xlJu-56" style="edgeStyle=orthogonalEdgeStyle;rounded=0;orthogonalLoop=1;jettySize=auto;html=1;entryX=1;entryY=0.5;entryDx=0;entryDy=0;exitX=-0.069;exitY=0.55;exitDx=0;exitDy=0;exitPerimeter=0;" parent="1" source="KgUe9YysScvb5YI7xlJu-52" target="KgUe9YysScvb5YI7xlJu-24" edge="1">
          <mxGeometry relative="1" as="geometry" />
        </mxCell>
        <mxCell id="KgUe9YysScvb5YI7xlJu-52" value="" style="html=1;points=[];perimeter=orthogonalPerimeter;fillColor=strokeColor;rotation=90;" parent="1" vertex="1">
          <mxGeometry x="480" y="165" width="5" height="80" as="geometry" />
        </mxCell>
        <mxCell id="KgUe9YysScvb5YI7xlJu-110" style="edgeStyle=orthogonalEdgeStyle;rounded=0;orthogonalLoop=1;jettySize=auto;html=1;exitX=1;exitY=0.5;exitDx=0;exitDy=0;entryX=0;entryY=0.5;entryDx=0;entryDy=0;" parent="1" source="KgUe9YysScvb5YI7xlJu-65" target="KgUe9YysScvb5YI7xlJu-68" edge="1">
          <mxGeometry relative="1" as="geometry" />
        </mxCell>
        <mxCell id="KgUe9YysScvb5YI7xlJu-65" value="Enter Resident Name&lt;br&gt;and Unit#" style="rounded=1;whiteSpace=wrap;html=1;" parent="1" vertex="1">
          <mxGeometry x="350" y="895" width="120" height="60" as="geometry" />
        </mxCell>
        <mxCell id="KgUe9YysScvb5YI7xlJu-75" style="edgeStyle=orthogonalEdgeStyle;rounded=0;orthogonalLoop=1;jettySize=auto;html=1;exitX=0;exitY=0.5;exitDx=0;exitDy=0;entryX=1.722;entryY=0.06;entryDx=0;entryDy=0;entryPerimeter=0;jumpStyle=arc;jumpSize=10;" parent="1" source="KgUe9YysScvb5YI7xlJu-80" target="KgUe9YysScvb5YI7xlJu-51" edge="1">
          <mxGeometry relative="1" as="geometry">
            <mxPoint x="170" y="520" as="targetPoint" />
          </mxGeometry>
        </mxCell>
        <mxCell id="KgUe9YysScvb5YI7xlJu-66" value="Assign to UNKNOWN" style="rounded=1;whiteSpace=wrap;html=1;" parent="1" vertex="1">
          <mxGeometry x="500" y="600" width="120" height="60" as="geometry" />
        </mxCell>
        <mxCell id="KgUe9YysScvb5YI7xlJu-72" style="edgeStyle=orthogonalEdgeStyle;rounded=0;orthogonalLoop=1;jettySize=auto;html=1;exitX=1;exitY=0.5;exitDx=0;exitDy=0;entryX=0;entryY=0.5;entryDx=0;entryDy=0;" parent="1" source="KgUe9YysScvb5YI7xlJu-67" target="KgUe9YysScvb5YI7xlJu-71" edge="1">
          <mxGeometry relative="1" as="geometry" />
        </mxCell>
        <mxCell id="KgUe9YysScvb5YI7xlJu-67" value="Enter/Select &lt;br&gt;Package Info&lt;br&gt;(Resident, Carrier, Shipping#)" style="rounded=1;whiteSpace=wrap;html=1;" parent="1" vertex="1">
          <mxGeometry x="350" y="505" width="120" height="60" as="geometry" />
        </mxCell>
        <mxCell id="KgUe9YysScvb5YI7xlJu-111" style="edgeStyle=orthogonalEdgeStyle;rounded=0;orthogonalLoop=1;jettySize=auto;html=1;exitX=0.5;exitY=1;exitDx=0;exitDy=0;entryX=0.5;entryY=0;entryDx=0;entryDy=0;" parent="1" source="KgUe9YysScvb5YI7xlJu-68" target="KgUe9YysScvb5YI7xlJu-94" edge="1">
          <mxGeometry relative="1" as="geometry" />
        </mxCell>
        <mxCell id="KgUe9YysScvb5YI7xlJu-112" value="No" style="edgeLabel;html=1;align=center;verticalAlign=middle;resizable=0;points=[];" parent="KgUe9YysScvb5YI7xlJu-111" vertex="1" connectable="0">
          <mxGeometry x="-0.3194" relative="1" as="geometry">
            <mxPoint as="offset" />
          </mxGeometry>
        </mxCell>
        <mxCell id="KgUe9YysScvb5YI7xlJu-113" style="edgeStyle=orthogonalEdgeStyle;rounded=0;orthogonalLoop=1;jettySize=auto;html=1;exitX=1;exitY=0.5;exitDx=0;exitDy=0;entryX=0;entryY=0.5;entryDx=0;entryDy=0;" parent="1" source="KgUe9YysScvb5YI7xlJu-68" target="KgUe9YysScvb5YI7xlJu-77" edge="1">
          <mxGeometry relative="1" as="geometry" />
        </mxCell>
        <mxCell id="KgUe9YysScvb5YI7xlJu-115" value="Yes" style="edgeLabel;html=1;align=center;verticalAlign=middle;resizable=0;points=[];" parent="KgUe9YysScvb5YI7xlJu-113" vertex="1" connectable="0">
          <mxGeometry x="-0.111" relative="1" as="geometry">
            <mxPoint as="offset" />
          </mxGeometry>
        </mxCell>
        <mxCell id="KgUe9YysScvb5YI7xlJu-68" value="Exists?" style="rhombus;whiteSpace=wrap;html=1;" parent="1" vertex="1">
          <mxGeometry x="515" y="900" width="90" height="50" as="geometry" />
        </mxCell>
        <mxCell id="KgUe9YysScvb5YI7xlJu-89" style="edgeStyle=orthogonalEdgeStyle;rounded=0;orthogonalLoop=1;jettySize=auto;html=1;exitX=1;exitY=0.5;exitDx=0;exitDy=0;entryX=0;entryY=0.5;entryDx=0;entryDy=0;" parent="1" source="KgUe9YysScvb5YI7xlJu-70" target="KgUe9YysScvb5YI7xlJu-96" edge="1">
          <mxGeometry relative="1" as="geometry">
            <mxPoint x="365" y="785" as="targetPoint" />
          </mxGeometry>
        </mxCell>
        <mxCell id="KgUe9YysScvb5YI7xlJu-90" value="Yes" style="edgeLabel;html=1;align=center;verticalAlign=middle;resizable=0;points=[];" parent="KgUe9YysScvb5YI7xlJu-89" vertex="1" connectable="0">
          <mxGeometry x="-0.169" y="-1" relative="1" as="geometry">
            <mxPoint as="offset" />
          </mxGeometry>
        </mxCell>
        <mxCell id="KgUe9YysScvb5YI7xlJu-107" style="edgeStyle=orthogonalEdgeStyle;rounded=0;orthogonalLoop=1;jettySize=auto;html=1;exitX=0.5;exitY=1;exitDx=0;exitDy=0;entryX=0.5;entryY=0;entryDx=0;entryDy=0;jumpStyle=arc;jumpSize=10;" parent="1" source="KgUe9YysScvb5YI7xlJu-70" target="KgUe9YysScvb5YI7xlJu-91" edge="1">
          <mxGeometry relative="1" as="geometry" />
        </mxCell>
        <mxCell id="KgUe9YysScvb5YI7xlJu-164" value="No" style="edgeLabel;html=1;align=center;verticalAlign=middle;resizable=0;points=[];" parent="KgUe9YysScvb5YI7xlJu-107" vertex="1" connectable="0">
          <mxGeometry x="-0.731" y="-1" relative="1" as="geometry">
            <mxPoint y="1" as="offset" />
          </mxGeometry>
        </mxCell>
        <mxCell id="KgUe9YysScvb5YI7xlJu-70" value="Package &lt;br&gt;Picked Up?" style="rhombus;whiteSpace=wrap;html=1;" parent="1" vertex="1">
          <mxGeometry x="215" y="760" width="90" height="50" as="geometry" />
        </mxCell>
        <mxCell id="KgUe9YysScvb5YI7xlJu-73" style="edgeStyle=orthogonalEdgeStyle;rounded=0;orthogonalLoop=1;jettySize=auto;html=1;exitX=0.5;exitY=1;exitDx=0;exitDy=0;entryX=0.5;entryY=0;entryDx=0;entryDy=0;" parent="1" source="KgUe9YysScvb5YI7xlJu-71" target="KgUe9YysScvb5YI7xlJu-66" edge="1">
          <mxGeometry relative="1" as="geometry" />
        </mxCell>
        <mxCell id="KgUe9YysScvb5YI7xlJu-74" value="No" style="edgeLabel;html=1;align=center;verticalAlign=middle;resizable=0;points=[];" parent="KgUe9YysScvb5YI7xlJu-73" vertex="1" connectable="0">
          <mxGeometry x="-0.1292" y="-1" relative="1" as="geometry">
            <mxPoint as="offset" />
          </mxGeometry>
        </mxCell>
        <mxCell id="KgUe9YysScvb5YI7xlJu-82" style="edgeStyle=orthogonalEdgeStyle;rounded=0;orthogonalLoop=1;jettySize=auto;html=1;exitX=1;exitY=0.5;exitDx=0;exitDy=0;entryX=0;entryY=0.5;entryDx=0;entryDy=0;" parent="1" source="KgUe9YysScvb5YI7xlJu-71" target="KgUe9YysScvb5YI7xlJu-81" edge="1">
          <mxGeometry relative="1" as="geometry" />
        </mxCell>
        <mxCell id="KgUe9YysScvb5YI7xlJu-83" value="Yes" style="edgeLabel;html=1;align=center;verticalAlign=middle;resizable=0;points=[];" parent="KgUe9YysScvb5YI7xlJu-82" vertex="1" connectable="0">
          <mxGeometry x="-0.1961" y="-1" relative="1" as="geometry">
            <mxPoint as="offset" />
          </mxGeometry>
        </mxCell>
        <mxCell id="KgUe9YysScvb5YI7xlJu-71" value="Resident &lt;br&gt;Exist?" style="rhombus;whiteSpace=wrap;html=1;" parent="1" vertex="1">
          <mxGeometry x="515" y="510" width="90" height="50" as="geometry" />
        </mxCell>
        <mxCell id="KgUe9YysScvb5YI7xlJu-145" style="edgeStyle=orthogonalEdgeStyle;rounded=0;orthogonalLoop=1;jettySize=auto;html=1;exitX=-0.118;exitY=0.19;exitDx=0;exitDy=0;entryX=0.3;entryY=0.605;entryDx=0;entryDy=0;entryPerimeter=0;jumpStyle=arc;jumpSize=10;exitPerimeter=0;" parent="1" source="rBp_qy43rg6pvI1Dn4-a-18" target="KgUe9YysScvb5YI7xlJu-51" edge="1">
          <mxGeometry relative="1" as="geometry" />
        </mxCell>
        <mxCell id="rBp_qy43rg6pvI1Dn4-a-20" style="edgeStyle=orthogonalEdgeStyle;rounded=0;orthogonalLoop=1;jettySize=auto;html=1;exitX=0;exitY=0.5;exitDx=0;exitDy=0;entryX=0.981;entryY=0.298;entryDx=0;entryDy=0;entryPerimeter=0;" edge="1" parent="1" source="KgUe9YysScvb5YI7xlJu-76" target="rBp_qy43rg6pvI1Dn4-a-18">
          <mxGeometry relative="1" as="geometry">
            <mxPoint x="300" y="1195" as="targetPoint" />
          </mxGeometry>
        </mxCell>
        <mxCell id="KgUe9YysScvb5YI7xlJu-76" value="Display Package Info&lt;br&gt;(Resident, Pending/Picked Up, Unit#, Delivery Date)" style="rounded=1;whiteSpace=wrap;html=1;" parent="1" vertex="1">
          <mxGeometry x="350" y="1165" width="120" height="60" as="geometry" />
        </mxCell>
        <mxCell id="KgUe9YysScvb5YI7xlJu-124" style="edgeStyle=orthogonalEdgeStyle;rounded=0;orthogonalLoop=1;jettySize=auto;html=1;exitX=0.5;exitY=1;exitDx=0;exitDy=0;entryX=1.109;entryY=0.761;entryDx=0;entryDy=0;entryPerimeter=0;" parent="1" source="KgUe9YysScvb5YI7xlJu-77" target="KgUe9YysScvb5YI7xlJu-118" edge="1">
          <mxGeometry relative="1" as="geometry" />
        </mxCell>
        <mxCell id="KgUe9YysScvb5YI7xlJu-77" value="Display Package History and Pending Pickup(s)" style="rounded=1;whiteSpace=wrap;html=1;" parent="1" vertex="1">
          <mxGeometry x="660" y="895" width="120" height="60" as="geometry" />
        </mxCell>
        <mxCell id="KgUe9YysScvb5YI7xlJu-85" style="edgeStyle=orthogonalEdgeStyle;rounded=0;orthogonalLoop=1;jettySize=auto;html=1;exitX=0.5;exitY=1;exitDx=0;exitDy=0;entryX=0.732;entryY=0.75;entryDx=0;entryDy=0;entryPerimeter=0;" parent="1" source="KgUe9YysScvb5YI7xlJu-81" target="KgUe9YysScvb5YI7xlJu-44" edge="1">
          <mxGeometry relative="1" as="geometry">
            <mxPoint x="410" y="730" as="targetPoint" />
            <Array as="points">
              <mxPoint x="720" y="670" />
            </Array>
          </mxGeometry>
        </mxCell>
        <mxCell id="KgUe9YysScvb5YI7xlJu-81" value="Send Email to Resident" style="rounded=1;whiteSpace=wrap;html=1;" parent="1" vertex="1">
          <mxGeometry x="660" y="510" width="120" height="60" as="geometry" />
        </mxCell>
        <mxCell id="KgUe9YysScvb5YI7xlJu-84" value="" style="edgeStyle=orthogonalEdgeStyle;rounded=0;orthogonalLoop=1;jettySize=auto;html=1;exitX=0;exitY=0.5;exitDx=0;exitDy=0;entryX=1.153;entryY=0.241;entryDx=0;entryDy=0;entryPerimeter=0;" parent="1" source="KgUe9YysScvb5YI7xlJu-66" target="KgUe9YysScvb5YI7xlJu-44" edge="1">
          <mxGeometry relative="1" as="geometry">
            <mxPoint x="500" y="630" as="sourcePoint" />
            <mxPoint x="283" y="548" as="targetPoint" />
          </mxGeometry>
        </mxCell>
        <mxCell id="KgUe9YysScvb5YI7xlJu-44" value="" style="html=1;points=[];perimeter=orthogonalPerimeter;fillColor=strokeColor;" parent="1" vertex="1">
          <mxGeometry x="460" y="610" width="5" height="80" as="geometry" />
        </mxCell>
        <mxCell id="KgUe9YysScvb5YI7xlJu-88" value="" style="edgeStyle=orthogonalEdgeStyle;rounded=0;orthogonalLoop=1;jettySize=auto;html=1;exitX=0;exitY=0.5;exitDx=0;exitDy=0;entryX=1;entryY=0.5;entryDx=0;entryDy=0;" parent="1" source="KgUe9YysScvb5YI7xlJu-44" target="KgUe9YysScvb5YI7xlJu-80" edge="1">
          <mxGeometry relative="1" as="geometry">
            <mxPoint x="460" y="650" as="sourcePoint" />
            <mxPoint x="283" y="548" as="targetPoint" />
          </mxGeometry>
        </mxCell>
        <mxCell id="KgUe9YysScvb5YI7xlJu-80" value="Assign Pending Pickup" style="rounded=1;whiteSpace=wrap;html=1;" parent="1" vertex="1">
          <mxGeometry x="310" y="620" width="120" height="60" as="geometry" />
        </mxCell>
        <mxCell id="KgUe9YysScvb5YI7xlJu-108" style="edgeStyle=orthogonalEdgeStyle;rounded=0;orthogonalLoop=1;jettySize=auto;html=1;exitX=1;exitY=0.5;exitDx=0;exitDy=0;" parent="1" source="KgUe9YysScvb5YI7xlJu-91" target="KgUe9YysScvb5YI7xlJu-65" edge="1">
          <mxGeometry relative="1" as="geometry">
            <mxPoint x="365" y="925" as="targetPoint" />
          </mxGeometry>
        </mxCell>
        <mxCell id="KgUe9YysScvb5YI7xlJu-109" value="Yes" style="edgeLabel;html=1;align=center;verticalAlign=middle;resizable=0;points=[];" parent="KgUe9YysScvb5YI7xlJu-108" vertex="1" connectable="0">
          <mxGeometry x="-0.2218" y="-1" relative="1" as="geometry">
            <mxPoint as="offset" />
          </mxGeometry>
        </mxCell>
        <mxCell id="KgUe9YysScvb5YI7xlJu-126" style="edgeStyle=orthogonalEdgeStyle;rounded=0;orthogonalLoop=1;jettySize=auto;html=1;exitX=0.5;exitY=1;exitDx=0;exitDy=0;entryX=0.5;entryY=0;entryDx=0;entryDy=0;" parent="1" source="KgUe9YysScvb5YI7xlJu-91" target="KgUe9YysScvb5YI7xlJu-30" edge="1">
          <mxGeometry relative="1" as="geometry" />
        </mxCell>
        <mxCell id="KgUe9YysScvb5YI7xlJu-163" value="No" style="edgeLabel;html=1;align=center;verticalAlign=middle;resizable=0;points=[];" parent="KgUe9YysScvb5YI7xlJu-126" vertex="1" connectable="0">
          <mxGeometry x="-0.6954" y="1" relative="1" as="geometry">
            <mxPoint as="offset" />
          </mxGeometry>
        </mxCell>
        <mxCell id="KgUe9YysScvb5YI7xlJu-91" value="Retrieve&lt;br&gt;History?" style="rhombus;whiteSpace=wrap;html=1;" parent="1" vertex="1">
          <mxGeometry x="215" y="900" width="90" height="50" as="geometry" />
        </mxCell>
        <mxCell id="KgUe9YysScvb5YI7xlJu-98" style="edgeStyle=orthogonalEdgeStyle;rounded=0;orthogonalLoop=1;jettySize=auto;html=1;exitX=1;exitY=0.5;exitDx=0;exitDy=0;entryX=0;entryY=0.5;entryDx=0;entryDy=0;" parent="1" source="KgUe9YysScvb5YI7xlJu-92" target="KgUe9YysScvb5YI7xlJu-95" edge="1">
          <mxGeometry relative="1" as="geometry" />
        </mxCell>
        <mxCell id="KgUe9YysScvb5YI7xlJu-99" value="Yes" style="edgeLabel;html=1;align=center;verticalAlign=middle;resizable=0;points=[];" parent="KgUe9YysScvb5YI7xlJu-98" vertex="1" connectable="0">
          <mxGeometry x="-0.2818" y="-1" relative="1" as="geometry">
            <mxPoint as="offset" />
          </mxGeometry>
        </mxCell>
        <mxCell id="KgUe9YysScvb5YI7xlJu-105" style="edgeStyle=orthogonalEdgeStyle;rounded=0;orthogonalLoop=1;jettySize=auto;html=1;exitX=0.5;exitY=1;exitDx=0;exitDy=0;entryX=1;entryY=0.272;entryDx=0;entryDy=0;entryPerimeter=0;" parent="1" source="KgUe9YysScvb5YI7xlJu-92" target="KgUe9YysScvb5YI7xlJu-43" edge="1">
          <mxGeometry relative="1" as="geometry" />
        </mxCell>
        <mxCell id="KgUe9YysScvb5YI7xlJu-106" value="No" style="edgeLabel;html=1;align=center;verticalAlign=middle;resizable=0;points=[];" parent="KgUe9YysScvb5YI7xlJu-105" vertex="1" connectable="0">
          <mxGeometry x="-0.4753" relative="1" as="geometry">
            <mxPoint as="offset" />
          </mxGeometry>
        </mxCell>
        <mxCell id="KgUe9YysScvb5YI7xlJu-92" value="Post Office Pickup?" style="rhombus;whiteSpace=wrap;html=1;" parent="1" vertex="1">
          <mxGeometry x="515" y="760" width="90" height="50" as="geometry" />
        </mxCell>
        <mxCell id="KgUe9YysScvb5YI7xlJu-123" style="edgeStyle=orthogonalEdgeStyle;rounded=0;orthogonalLoop=1;jettySize=auto;html=1;exitX=0;exitY=0.5;exitDx=0;exitDy=0;entryX=1.618;entryY=0.243;entryDx=0;entryDy=0;entryPerimeter=0;" parent="1" source="KgUe9YysScvb5YI7xlJu-94" target="KgUe9YysScvb5YI7xlJu-118" edge="1">
          <mxGeometry relative="1" as="geometry" />
        </mxCell>
        <mxCell id="KgUe9YysScvb5YI7xlJu-94" value="Display Error" style="rounded=1;whiteSpace=wrap;html=1;" parent="1" vertex="1">
          <mxGeometry x="500" y="980" width="120" height="60" as="geometry" />
        </mxCell>
        <mxCell id="KgUe9YysScvb5YI7xlJu-103" style="edgeStyle=orthogonalEdgeStyle;rounded=0;orthogonalLoop=1;jettySize=auto;html=1;exitX=0.5;exitY=1;exitDx=0;exitDy=0;entryX=1.151;entryY=0.634;entryDx=0;entryDy=0;entryPerimeter=0;" parent="1" source="KgUe9YysScvb5YI7xlJu-95" target="KgUe9YysScvb5YI7xlJu-43" edge="1">
          <mxGeometry relative="1" as="geometry" />
        </mxCell>
        <mxCell id="KgUe9YysScvb5YI7xlJu-95" value="Remove from UNKNOWN" style="rounded=1;whiteSpace=wrap;html=1;" parent="1" vertex="1">
          <mxGeometry x="660" y="755" width="120" height="60" as="geometry" />
        </mxCell>
        <mxCell id="KgUe9YysScvb5YI7xlJu-97" style="edgeStyle=orthogonalEdgeStyle;rounded=0;orthogonalLoop=1;jettySize=auto;html=1;exitX=1;exitY=0.5;exitDx=0;exitDy=0;entryX=0;entryY=0.5;entryDx=0;entryDy=0;" parent="1" source="KgUe9YysScvb5YI7xlJu-96" target="KgUe9YysScvb5YI7xlJu-92" edge="1">
          <mxGeometry relative="1" as="geometry" />
        </mxCell>
        <mxCell id="KgUe9YysScvb5YI7xlJu-96" value="Remove from Pending" style="rounded=1;whiteSpace=wrap;html=1;" parent="1" vertex="1">
          <mxGeometry x="350" y="755" width="120" height="60" as="geometry" />
        </mxCell>
        <mxCell id="KgUe9YysScvb5YI7xlJu-144" style="edgeStyle=orthogonalEdgeStyle;rounded=0;orthogonalLoop=1;jettySize=auto;html=1;entryX=0.922;entryY=0.433;entryDx=0;entryDy=0;entryPerimeter=0;jumpStyle=arc;jumpSize=10;" parent="1" source="KgUe9YysScvb5YI7xlJu-118" target="KgUe9YysScvb5YI7xlJu-51" edge="1">
          <mxGeometry relative="1" as="geometry" />
        </mxCell>
        <mxCell id="KgUe9YysScvb5YI7xlJu-118" value="" style="html=1;points=[];perimeter=orthogonalPerimeter;fillColor=strokeColor;" parent="1" vertex="1">
          <mxGeometry x="460" y="990" width="5" height="80" as="geometry" />
        </mxCell>
        <mxCell id="KgUe9YysScvb5YI7xlJu-159" style="edgeStyle=orthogonalEdgeStyle;rounded=0;orthogonalLoop=1;jettySize=auto;html=1;exitX=0;exitY=0.5;exitDx=0;exitDy=0;" parent="1" source="KgUe9YysScvb5YI7xlJu-130" edge="1">
          <mxGeometry relative="1" as="geometry">
            <mxPoint x="100" y="503.68408203125" as="targetPoint" />
          </mxGeometry>
        </mxCell>
        <mxCell id="KgUe9YysScvb5YI7xlJu-160" value="No" style="edgeLabel;html=1;align=center;verticalAlign=middle;resizable=0;points=[];" parent="KgUe9YysScvb5YI7xlJu-159" vertex="1" connectable="0">
          <mxGeometry x="-0.9562" y="5" relative="1" as="geometry">
            <mxPoint y="-5" as="offset" />
          </mxGeometry>
        </mxCell>
        <mxCell id="KgUe9YysScvb5YI7xlJu-166" style="edgeStyle=orthogonalEdgeStyle;rounded=0;orthogonalLoop=1;jettySize=auto;html=1;exitX=0.5;exitY=1;exitDx=0;exitDy=0;entryX=0.5;entryY=0;entryDx=0;entryDy=0;" parent="1" source="KgUe9YysScvb5YI7xlJu-130" target="KgUe9YysScvb5YI7xlJu-165" edge="1">
          <mxGeometry relative="1" as="geometry" />
        </mxCell>
        <mxCell id="KgUe9YysScvb5YI7xlJu-130" value="Logout?" style="rhombus;whiteSpace=wrap;html=1;" parent="1" vertex="1">
          <mxGeometry x="215" y="1555" width="90" height="50" as="geometry" />
        </mxCell>
        <mxCell id="KgUe9YysScvb5YI7xlJu-151" style="edgeStyle=orthogonalEdgeStyle;rounded=0;orthogonalLoop=1;jettySize=auto;html=1;exitX=1;exitY=0.5;exitDx=0;exitDy=0;entryX=0;entryY=0.5;entryDx=0;entryDy=0;" parent="1" source="KgUe9YysScvb5YI7xlJu-131" target="KgUe9YysScvb5YI7xlJu-135" edge="1">
          <mxGeometry relative="1" as="geometry" />
        </mxCell>
        <mxCell id="KgUe9YysScvb5YI7xlJu-154" value="No" style="edgeLabel;html=1;align=center;verticalAlign=middle;resizable=0;points=[];" parent="KgUe9YysScvb5YI7xlJu-151" vertex="1" connectable="0">
          <mxGeometry x="-0.2415" relative="1" as="geometry">
            <mxPoint as="offset" />
          </mxGeometry>
        </mxCell>
        <mxCell id="KgUe9YysScvb5YI7xlJu-155" style="edgeStyle=orthogonalEdgeStyle;rounded=0;orthogonalLoop=1;jettySize=auto;html=1;exitX=0.5;exitY=1;exitDx=0;exitDy=0;entryX=0.5;entryY=0;entryDx=0;entryDy=0;" parent="1" source="KgUe9YysScvb5YI7xlJu-131" target="KgUe9YysScvb5YI7xlJu-134" edge="1">
          <mxGeometry relative="1" as="geometry" />
        </mxCell>
        <mxCell id="KgUe9YysScvb5YI7xlJu-156" value="Yes" style="edgeLabel;html=1;align=center;verticalAlign=middle;resizable=0;points=[];" parent="KgUe9YysScvb5YI7xlJu-155" vertex="1" connectable="0">
          <mxGeometry x="-0.2567" relative="1" as="geometry">
            <mxPoint as="offset" />
          </mxGeometry>
        </mxCell>
        <mxCell id="KgUe9YysScvb5YI7xlJu-131" value="Valid Info?" style="rhombus;whiteSpace=wrap;html=1;" parent="1" vertex="1">
          <mxGeometry x="505" y="1355" width="90" height="50" as="geometry" />
        </mxCell>
        <mxCell id="KgUe9YysScvb5YI7xlJu-148" style="edgeStyle=orthogonalEdgeStyle;rounded=0;orthogonalLoop=1;jettySize=auto;html=1;exitX=1;exitY=0.5;exitDx=0;exitDy=0;entryX=0;entryY=0.5;entryDx=0;entryDy=0;" parent="1" source="KgUe9YysScvb5YI7xlJu-132" target="KgUe9YysScvb5YI7xlJu-136" edge="1">
          <mxGeometry relative="1" as="geometry" />
        </mxCell>
        <mxCell id="KgUe9YysScvb5YI7xlJu-149" value="Yes" style="edgeLabel;html=1;align=center;verticalAlign=middle;resizable=0;points=[];" parent="KgUe9YysScvb5YI7xlJu-148" vertex="1" connectable="0">
          <mxGeometry x="-0.1411" relative="1" as="geometry">
            <mxPoint as="offset" />
          </mxGeometry>
        </mxCell>
        <mxCell id="KgUe9YysScvb5YI7xlJu-158" style="edgeStyle=orthogonalEdgeStyle;rounded=0;orthogonalLoop=1;jettySize=auto;html=1;exitX=0.5;exitY=1;exitDx=0;exitDy=0;entryX=0.5;entryY=0;entryDx=0;entryDy=0;" parent="1" source="KgUe9YysScvb5YI7xlJu-132" target="KgUe9YysScvb5YI7xlJu-130" edge="1">
          <mxGeometry relative="1" as="geometry">
            <mxPoint x="260.2631578947369" y="1574.9999999999995" as="targetPoint" />
          </mxGeometry>
        </mxCell>
        <mxCell id="KgUe9YysScvb5YI7xlJu-161" value="No" style="edgeLabel;html=1;align=center;verticalAlign=middle;resizable=0;points=[];" parent="KgUe9YysScvb5YI7xlJu-158" vertex="1" connectable="0">
          <mxGeometry x="-0.7235" y="1" relative="1" as="geometry">
            <mxPoint as="offset" />
          </mxGeometry>
        </mxCell>
        <mxCell id="KgUe9YysScvb5YI7xlJu-132" value="Create New&lt;br&gt;Resident?" style="rhombus;whiteSpace=wrap;html=1;" parent="1" vertex="1">
          <mxGeometry x="215" y="1355" width="90" height="50" as="geometry" />
        </mxCell>
        <mxCell id="KgUe9YysScvb5YI7xlJu-157" style="edgeStyle=orthogonalEdgeStyle;rounded=0;orthogonalLoop=1;jettySize=auto;html=1;exitX=0;exitY=0.5;exitDx=0;exitDy=0;entryX=0.774;entryY=0.777;entryDx=0;entryDy=0;entryPerimeter=0;jumpStyle=arc;jumpSize=10;" parent="1" source="KgUe9YysScvb5YI7xlJu-134" target="KgUe9YysScvb5YI7xlJu-51" edge="1">
          <mxGeometry relative="1" as="geometry" />
        </mxCell>
        <mxCell id="KgUe9YysScvb5YI7xlJu-134" value="Create Resident" style="rounded=1;whiteSpace=wrap;html=1;" parent="1" vertex="1">
          <mxGeometry x="490" y="1445" width="120" height="60" as="geometry" />
        </mxCell>
        <mxCell id="KgUe9YysScvb5YI7xlJu-152" style="edgeStyle=orthogonalEdgeStyle;rounded=0;orthogonalLoop=1;jettySize=auto;html=1;exitX=0.5;exitY=0;exitDx=0;exitDy=0;entryX=0.5;entryY=0;entryDx=0;entryDy=0;" parent="1" source="KgUe9YysScvb5YI7xlJu-135" target="KgUe9YysScvb5YI7xlJu-136" edge="1">
          <mxGeometry relative="1" as="geometry" />
        </mxCell>
        <mxCell id="KgUe9YysScvb5YI7xlJu-135" value="Display Error" style="rounded=1;whiteSpace=wrap;html=1;" parent="1" vertex="1">
          <mxGeometry x="632.5" y="1350" width="120" height="60" as="geometry" />
        </mxCell>
        <mxCell id="KgUe9YysScvb5YI7xlJu-150" style="edgeStyle=orthogonalEdgeStyle;rounded=0;orthogonalLoop=1;jettySize=auto;html=1;exitX=1;exitY=0.5;exitDx=0;exitDy=0;entryX=0;entryY=0.5;entryDx=0;entryDy=0;" parent="1" source="KgUe9YysScvb5YI7xlJu-136" target="KgUe9YysScvb5YI7xlJu-131" edge="1">
          <mxGeometry relative="1" as="geometry" />
        </mxCell>
        <mxCell id="KgUe9YysScvb5YI7xlJu-136" value="Enter Resident Info&lt;br&gt;(Name, Email, Unit)" style="rounded=1;whiteSpace=wrap;html=1;" parent="1" vertex="1">
          <mxGeometry x="350" y="1350" width="120" height="60" as="geometry" />
        </mxCell>
        <mxCell id="KgUe9YysScvb5YI7xlJu-165" value="" style="ellipse;html=1;shape=endState;fillColor=#000000;strokeColor=#ff0000;" parent="1" vertex="1">
          <mxGeometry x="245" y="1645" width="30" height="30" as="geometry" />
        </mxCell>
        <mxCell id="rBp_qy43rg6pvI1Dn4-a-12" style="edgeStyle=orthogonalEdgeStyle;rounded=0;orthogonalLoop=1;jettySize=auto;html=1;exitX=0.5;exitY=1;exitDx=0;exitDy=0;entryX=0.5;entryY=0;entryDx=0;entryDy=0;" edge="1" parent="1" source="rBp_qy43rg6pvI1Dn4-a-5" target="rBp_qy43rg6pvI1Dn4-a-6">
          <mxGeometry relative="1" as="geometry" />
        </mxCell>
        <mxCell id="rBp_qy43rg6pvI1Dn4-a-5" value="Enter Shipping #" style="rounded=1;whiteSpace=wrap;html=1;" vertex="1" parent="1">
          <mxGeometry x="500" y="1065" width="120" height="60" as="geometry" />
        </mxCell>
        <mxCell id="rBp_qy43rg6pvI1Dn4-a-13" style="edgeStyle=orthogonalEdgeStyle;rounded=0;orthogonalLoop=1;jettySize=auto;html=1;exitX=0;exitY=0.5;exitDx=0;exitDy=0;entryX=1;entryY=0.5;entryDx=0;entryDy=0;" edge="1" parent="1" source="rBp_qy43rg6pvI1Dn4-a-6" target="KgUe9YysScvb5YI7xlJu-76">
          <mxGeometry relative="1" as="geometry" />
        </mxCell>
        <mxCell id="rBp_qy43rg6pvI1Dn4-a-14" value="Yes" style="edgeLabel;html=1;align=center;verticalAlign=middle;resizable=0;points=[];" vertex="1" connectable="0" parent="rBp_qy43rg6pvI1Dn4-a-13">
          <mxGeometry x="-0.4674" relative="1" as="geometry">
            <mxPoint x="-3" as="offset" />
          </mxGeometry>
        </mxCell>
        <mxCell id="rBp_qy43rg6pvI1Dn4-a-16" style="edgeStyle=orthogonalEdgeStyle;rounded=0;orthogonalLoop=1;jettySize=auto;html=1;exitX=0.5;exitY=1;exitDx=0;exitDy=0;entryX=0.5;entryY=0;entryDx=0;entryDy=0;" edge="1" parent="1" source="rBp_qy43rg6pvI1Dn4-a-6" target="rBp_qy43rg6pvI1Dn4-a-15">
          <mxGeometry relative="1" as="geometry" />
        </mxCell>
        <mxCell id="rBp_qy43rg6pvI1Dn4-a-17" value="No" style="edgeLabel;html=1;align=center;verticalAlign=middle;resizable=0;points=[];" vertex="1" connectable="0" parent="rBp_qy43rg6pvI1Dn4-a-16">
          <mxGeometry x="-0.2151" relative="1" as="geometry">
            <mxPoint as="offset" />
          </mxGeometry>
        </mxCell>
        <mxCell id="rBp_qy43rg6pvI1Dn4-a-6" value="Exists?" style="rhombus;whiteSpace=wrap;html=1;" vertex="1" parent="1">
          <mxGeometry x="515" y="1170" width="90" height="50" as="geometry" />
        </mxCell>
        <mxCell id="rBp_qy43rg6pvI1Dn4-a-21" style="edgeStyle=orthogonalEdgeStyle;rounded=0;orthogonalLoop=1;jettySize=auto;html=1;exitX=0;exitY=0.5;exitDx=0;exitDy=0;entryX=1.112;entryY=0.655;entryDx=0;entryDy=0;entryPerimeter=0;" edge="1" parent="1" source="rBp_qy43rg6pvI1Dn4-a-15" target="rBp_qy43rg6pvI1Dn4-a-18">
          <mxGeometry relative="1" as="geometry">
            <Array as="points">
              <mxPoint x="340" y="1280" />
              <mxPoint x="340" y="1213" />
            </Array>
          </mxGeometry>
        </mxCell>
        <mxCell id="rBp_qy43rg6pvI1Dn4-a-15" value="Display Error" style="rounded=1;whiteSpace=wrap;html=1;" vertex="1" parent="1">
          <mxGeometry x="500" y="1250" width="120" height="60" as="geometry" />
        </mxCell>
        <mxCell id="rBp_qy43rg6pvI1Dn4-a-18" value="" style="html=1;points=[];perimeter=orthogonalPerimeter;fillColor=strokeColor;" vertex="1" parent="1">
          <mxGeometry x="290" y="1180" width="5" height="50" as="geometry" />
        </mxCell>
      </root>
    </mxGraphModel>
  </diagram>
</mxfile>
